<svg id="Livello_1" data-name="Livello 1" xmlns="http://www.w3.org/2000/svg" viewBox="0 0 584.52 180.85"><path d="M382.32,288.85a7.51,7.51,0,0,1,.95,0l2.53,61-.85.05c-1.77-6.92-6.52-60.58-25.06-60.58-14.24,0-19,65.79-19,87.84,0,28.54,3.52,88.44,19.51,88.44,7.71,0,11.9-13.2,11.9-30.63V379.33h-8.56v-2.19h34.54v2.19h-8.67v87.22s-1,0-1,0c-1.26-3.63-1.44-11.1-7.06-11.1-6.23,0-12.9,12.9-21.56,12.87-28.64-.08-38.62-53-38.62-91.14,0-31.6,11.54-89.7,38.59-89.7,4.53,0,7.72,1.17,11.34,6.4,2.65,3.84,7.67,4.71,9.81-.2A23.73,23.73,0,0,0,382.32,288.85Z" transform="translate(-321.35 -287.49)" fill="#000000"/><polyline points="449.46 175.87 449.46 4.55 441.79 4.55 441.79 2.46 474.42 2.46 474.42 4.55 466.72 4.55 466.77 175.87 474.42 175.87 474.42 177.98 441.79 177.98 441.79 175.87 449.46 175.87 449.46 4.55" fill="#000000"/><path d="M676.1,463.34h20.44c9.59-.38,21.34-9.33,21.34-34.3,0-4.77,0-9.75,0-14.73h1.82v51.12l-61.92,0,42-173.42H680.26c-12.4,0-19.24,18.77-19.24,36,0,4.42-.14,13-.14,13l-1.72,0V290h60.16Z" transform="translate(-321.35 -287.49)" fill="#000000"/><path d="M443.65,290l36.49,0c17.46,0,28.79,19.41,28.79,42.71s-9.53,44.88-24.22,44.88c-2,0-1.79,1.18,0,1.18,8.8,0,15.41,10.07,16.75,12.75,5.38,10.82,1.67,60.65,7.06,65.57,4.54,4.15,7.88-2.34,8.47-3.35l.56.4c-.09.46-4,13.31-13.81,13.31-8.17,0-12.3-10-13.47-16.32-1.91-10.23-1.29-41.53-2.33-47.83-.91-5.49-3.38-21.87-11.08-23.3a34.2,34.2,0,0,0-8.37-.62s0,84,0,84h7.7v2.16H442.6v-2.16h8.63l0-171.24h-7.55Zm24.83,2.12v85.1c3.56,0,9.44.38,15.55-7.5,5.68-7.32,7.93-25.78,7.93-39.54,0-14.68-7.35-38.1-16.78-38.1Z" transform="translate(-321.35 -287.49)" fill="#000000"/><path d="M555,463.32l33-175.83,30.5,175.83,6.93,0v2.12H593.69V463.3h6.95l-8.63-49H566.73l-9,49.08h8.91v2.1H547.47v-2.09ZM567.21,412H591.7l-11.8-68.65Z" transform="translate(-321.35 -287.49)" fill="#000000"/><path d="M835.45,463.32l33-175.83,30.5,175.83,6.93,0v2.12H874.15V463.3h6.94l-8.63-49H847.19l-9,49.08h8.91v2.1h-19.2v-2.08ZM847.67,412h24.48l-11.8-68.65Z" transform="translate(-321.35 -287.49)" fill="#000000"/></svg>